<?xml version="1.0" encoding="UTF-8" standalone="no"?>
<!-- Created with Inkscape (http://www.inkscape.org/) -->

<svg
   width="76.615761mm"
   height="14.231803mm"
   viewBox="0 0 76.615764 14.231804"
   version="1.1"
   id="svg705"
   xml:space="preserve"
   inkscape:version="1.2.1 (9c6d41e410, 2022-07-14)"
   sodipodi:docname="logo.svg"
   inkscape:export-filename="LOGO_CAKE_SHOP_v1.2.png"
   inkscape:export-xdpi="20"
   inkscape:export-ydpi="20"
   xmlns:inkscape="http://www.inkscape.org/namespaces/inkscape"
   xmlns:sodipodi="http://sodipodi.sourceforge.net/DTD/sodipodi-0.dtd"
   xmlns="http://www.w3.org/2000/svg"
   xmlns:svg="http://www.w3.org/2000/svg"><sodipodi:namedview
     id="namedview707"
     pagecolor="#ffffff"
     bordercolor="#666666"
     borderopacity="1.0"
     inkscape:showpageshadow="false"
     inkscape:pageopacity="0"
     inkscape:pagecheckerboard="true"
     inkscape:deskcolor="#d1d1d1"
     inkscape:document-units="mm"
     showgrid="false"
     inkscape:zoom="1.1893044"
     inkscape:cx="460.77354"
     inkscape:cy="16.816553"
     inkscape:window-width="1920"
     inkscape:window-height="1009"
     inkscape:window-x="1432"
     inkscape:window-y="-8"
     inkscape:window-maximized="1"
     inkscape:current-layer="text393"
     showborder="false"
     borderlayer="false" /><defs
     id="defs702"><inkscape:path-effect
       effect="bspline"
       id="path-effect1267"
       is_visible="true"
       lpeversion="1"
       weight="33.333333"
       steps="2"
       helper_size="0"
       apply_no_weight="true"
       apply_with_weight="true"
       only_selected="false" /><inkscape:path-effect
       effect="powerclip"
       id="path-effect1205"
       is_visible="true"
       lpeversion="1"
       inverse="true"
       flatten="false"
       hide_clip="false"
       message="Utilice la regla de relleno parimpar en el diálogo &lt;b&gt;Relleno y borde&lt;/b&gt; si el resultado no está aplanada después de convertir el recorte en trayectos." /><inkscape:path-effect
       effect="bspline"
       id="path-effect1127"
       is_visible="true"
       lpeversion="1"
       weight="33.333333"
       steps="2"
       helper_size="0"
       apply_no_weight="true"
       apply_with_weight="true"
       only_selected="false" /><inkscape:path-effect
       effect="bspline"
       id="path-effect1123"
       is_visible="true"
       lpeversion="1"
       weight="33.333333"
       steps="2"
       helper_size="0"
       apply_no_weight="true"
       apply_with_weight="true"
       only_selected="false" /><clipPath
       clipPathUnits="userSpaceOnUse"
       id="clipPath1201"><path
         style="display:none;fill:#ffffff;stroke:#000000;stroke-width:0.264583px;stroke-linecap:butt;stroke-linejoin:miter;stroke-opacity:1"
         d="m -65.558659,36.181141 c 0.878575,-0.02595 1.756883,-0.05217 2.634929,-0.07865 1.12767,-0.98294 2.255034,-1.966103 3.382151,-2.949551 0.236233,-1.114031 0.472194,-2.228284 0.707892,-3.342823 -0.52411,-0.602765 -1.048464,-1.205772 -1.573093,-1.809056 -0.825627,-0.06528 -1.651484,-0.130826 -2.477622,-0.196639 -1.179579,0.97036 -2.359374,1.940415 -3.539458,2.910224 -0.35369,0.747498 -0.707628,1.494702 -1.061839,2.241658 0.07892,0.642623 0.157572,1.284957 0.235963,1.92704 0.288671,0.341106 0.577067,0.681937 0.865201,1.022509 0.275563,0.09203 0.550849,0.183793 0.825876,0.275291 z"
         id="path1203"
         inkscape:original-d="m -65.558659,36.181141 c 0.878575,-0.02595 1.756883,-0.05217 2.634929,-0.07865 1.12767,-0.98294 2.255034,-1.966103 3.382151,-2.949551 0.236233,-1.114031 0.472194,-2.228284 0.707892,-3.342823 -0.52411,-0.602765 -1.048464,-1.205772 -1.573093,-1.809056 -0.825627,-0.06528 -1.651484,-0.130826 -2.477622,-0.196639 -1.179579,0.97036 -2.359374,1.940415 -3.539458,2.910224 -0.35369,0.747498 -0.707628,1.494702 -1.061839,2.241658 0.07892,0.642623 0.157572,1.284957 0.235963,1.92704 0.288671,0.341106 0.577067,0.681937 0.865201,1.022509 0.275563,0.09203 0.550849,0.183793 0.825876,0.275291 z"
         inkscape:path-effect="#path-effect1127"
         clip-path="none" /><path
         id="lpe_path-effect1205"
         style="fill:#ffffff;stroke:#000000;stroke-width:0.264583px;stroke-linecap:butt;stroke-linejoin:miter;stroke-opacity:1"
         class="powerclip"
         d="m -74.464209,13.645844 h 32.528085 v 32.826562 h -32.528085 z m 8.90555,22.535297 c 0.878575,-0.02595 1.756883,-0.05217 2.634929,-0.07865 1.12767,-0.98294 2.255034,-1.966103 3.382151,-2.949551 0.236233,-1.114031 0.472194,-2.228284 0.707892,-3.342823 -0.52411,-0.602765 -1.048464,-1.205772 -1.573093,-1.809056 -0.825627,-0.06528 -1.651484,-0.130826 -2.477622,-0.196639 -1.179579,0.97036 -2.359374,1.940415 -3.539458,2.910224 -0.35369,0.747498 -0.707628,1.494702 -1.061839,2.241658 0.07892,0.642623 0.157572,1.284957 0.235963,1.92704 0.288671,0.341106 0.577067,0.681937 0.865201,1.022509 0.275563,0.09203 0.550849,0.183793 0.825876,0.275291 z" /></clipPath></defs><g
     inkscape:label="Capa 1"
     inkscape:groupmode="layer"
     id="layer1"
     transform="translate(129.55746,1.3858187)"><path
       style="fill:#ef6c58;fill-opacity:1;stroke-width:0.0480251"
       d="m -122.47387,12.789994 c -0.15494,-0.06179 -0.32747,-0.223913 -0.4128,-0.38789 -0.0883,-0.169707 -0.0857,-0.55456 0.005,-0.728252 0.0395,-0.07566 0.0717,-0.145265 0.0717,-0.154689 0,-0.0094 -0.28544,-0.02316 -0.63433,-0.03053 l -0.55626,-0.01175 c -0.0992,0.01156 -0.0905,-0.04131 -0.11741,-0.126893 l -0.0738,-0.234945 c -0.0623,-0.198102 -0.27505,-0.900467 -0.47289,-1.5608098 -0.94759,-3.1627466 -1.19471,-3.9483467 -1.2817,-4.0745252 -0.12404,-0.1799362 -0.25577,-0.6112269 -0.29584,-0.9687039 -0.0178,-0.1581506 -0.15321,-0.6927567 -0.30104,-1.1880145 -0.29747,-0.99659 -0.28581,-0.9818413 -0.63316,-0.8007858 -0.1784,0.092975 -0.25599,0.09863 -1.1531,0.084043 l -0.96185,-0.015637 -0.13306,-0.1331606 c -0.10646,-0.1065507 -0.13305,-0.1769155 -0.13305,-0.3521214 0,-0.186626 0.0232,-0.2396542 0.15682,-0.3590953 l 0.15684,-0.1401361 h 0.97706 c 0.963,0 0.9796,0.00174 1.15399,0.1200632 0.13491,0.091558 0.23875,0.1200622 0.43737,0.1200622 h 0.26045 l 0.12727,0.4082121 c 0.07,0.2245176 0.14291,0.4082126 0.162,0.4082126 0.019,0 0.0613,-0.1191116 0.094,-0.2646932 0.13904,-0.6212416 0.4122,-0.72382 1.80488,-0.6777604 0.52835,0.017473 1.0795,0.053582 1.22477,0.08024 0.14528,0.026659 0.85844,0.057531 1.58483,0.068606 1.40773,0.021462 1.8907,-0.011218 3.53364,-0.2391039 1.6558,-0.2296702 2.20657,-0.2303972 2.65431,-0.0035 0.1487,0.075342 0.30611,0.2056138 0.39239,0.3247366 0.25984,0.358684 0.29576,0.5679041 0.33661,1.9601294 0.0206,0.6999637 0.0635,1.5859468 0.0955,1.9688497 0.0901,1.0783425 0.0192,1.427331 -0.31217,1.536699 -0.2224,0.0734 -0.47182,-0.00667 -0.61216,-0.1964526 -0.057,-0.077059 -0.11805,-0.1237488 -0.13572,-0.1037581 -0.0177,0.019996 -0.19981,0.7115705 -0.40471,1.5368439 l -0.37255,1.5004911 -3.795,0.01231 c -3.41328,0.01105 -3.79983,0.02 -3.8433,0.0889 -0.0737,0.11674 0.002,0.329039 0.17997,0.507321 l 0.16044,0.160455 h 3.82595 c 2.54549,0 3.85705,0.01664 3.91885,0.04972 0.0639,0.03422 0.0929,0.100718 0.0929,0.213389 0,0.26378 -0.11914,0.313197 -0.75507,0.313197 -0.29789,0 -0.54161,0.01154 -0.54161,0.0257 0,0.01414 0.037,0.08224 0.0823,0.151351 0.0512,0.07816 0.0823,0.220469 0.0823,0.376527 0,0.313301 -0.15285,0.559505 -0.43195,0.695779 -0.67986,0.331951 -1.38933,-0.339318 -1.08523,-1.02679 l 0.0985,-0.222569 h -1.65424 -1.65427 l 0.0961,0.179382 c 0.3395,0.633446 -0.33704,1.379073 -1.0084,1.111361 z m 0.28813,-3.3077963 c 0.0871,-0.087126 0.096,-0.1600822 0.096,-0.785367 0,-0.3791246 0.0137,-0.8193672 0.0302,-0.9783194 0.0265,-0.25399 0.0178,-0.3013863 -0.072,-0.3912437 -0.099,-0.098948 -0.14162,-0.1022436 -1.32346,-0.1022436 -1.04614,0 -1.23203,0.010823 -1.29668,0.075467 -0.0415,0.041505 -0.0755,0.089931 -0.0755,0.1076099 0,0.120274 0.70458,1.9755138 0.78313,2.0620928 0.0945,0.1041266 0.12832,0.1080552 0.93013,0.1080552 0.76803,0 0.83945,-0.00741 0.92811,-0.096051 z m 2.99521,0.00702 c 0.0745,-0.082391 0.0756,-0.1636924 0.0137,-1.0895252 -0.0627,-0.936743 -0.0738,-1.0060421 -0.17452,-1.0875794 -0.0962,-0.07787 -0.21342,-0.087087 -1.10806,-0.087087 -0.97657,0 -1.00363,0.00268 -1.12975,0.111137 l -0.12919,0.1111364 0.0535,0.9524894 c 0.0397,0.7055229 0.0728,0.9817829 0.12763,1.0654744 l 0.0741,0.1129882 h 1.09602 c 1.00624,0 1.10263,-0.00734 1.1766,-0.089034 z m 2.61078,-0.025496 c 0.11027,-0.1401731 0.47352,-2.0231253 0.42647,-2.2105943 -0.0198,-0.078775 -0.0754,-0.1338918 -0.15545,-0.1539816 -0.17708,-0.044443 -2.14535,0.1044468 -2.2712,0.1718008 -0.0575,0.030785 -0.12516,0.110087 -0.15032,0.1762341 -0.0251,0.066152 -0.0456,0.5331781 -0.0456,1.0378438 0,0.7864175 0.0113,0.9301274 0.0795,1.0053982 0.072,0.079583 0.17086,0.087826 1.05306,0.087826 0.96874,0 0.97404,-5.463e-4 1.06367,-0.1145271 z m -5.63491,-2.8214991 c 0.0659,-0.029994 0.13035,-0.082309 0.14338,-0.1162597 0.0131,-0.03395 0.002,-0.4254308 -0.026,-0.8699518 -0.0565,-0.9196096 -0.0887,-1.0056121 -0.32404,-0.8665772 -0.22623,0.1336386 -0.40648,0.1004231 -0.95584,-0.1761369 -0.61424,-0.3092324 -0.72792,-0.3400828 -0.93329,-0.2532934 -0.3109,0.1313788 -0.53203,0.4571049 -0.6572,0.9680352 -0.0323,0.1320692 -0.0984,0.3049587 -0.14686,0.3842012 -0.0861,0.140813 -0.0857,0.1516848 0.0168,0.4802495 0.15682,0.5027289 0.16115,0.5040954 1.60101,0.5041883 0.7652,4.89e-5 1.20324,-0.018557 1.28203,-0.054454 z m 2.7799,-0.010087 c 0.27431,-0.1146889 0.29398,-0.2093211 0.24495,-1.1787743 -0.0417,-0.8239688 -0.0491,-0.8691544 -0.16308,-0.9911372 -0.32306,-0.3457215 -1.32909,-0.7772168 -1.66512,-0.7141787 -0.20481,0.03842 -0.44023,0.2303712 -0.52141,0.4251475 -0.0352,0.084442 -0.0873,0.610954 -0.12312,1.2450844 l -0.0621,1.0987682 0.11096,0.089851 c 0.10012,0.081064 0.20452,0.089851 1.0677,0.089851 0.69293,0 0.99932,-0.017814 1.11125,-0.06461 z m 3.43987,-0.1068442 c 0.25243,-0.2826872 0.31472,-1.0296024 0.12008,-1.4397755 -0.20124,-0.4241083 -0.61778,-0.4580165 -1.45538,-0.1184741 -0.47475,0.1924578 -0.51947,0.2015582 -0.91213,0.1856359 l -0.41287,-0.016745 -0.0378,0.3361747 c -0.0208,0.1848973 -0.0318,0.5084959 -0.0243,0.7191101 0.0186,0.5286728 -0.0334,0.5106177 1.42219,0.4944747 l 1.16863,-0.012963 z"
       id="path996-7"
       sodipodi:nodetypes="sssssccssssssscssscssscssssssssssssssscssscssssssssscccsssssssssssssssssscsscsssssssscsssscsssssssssssssscssssssscssscs" /><path
       style="fill:#ef6c58;fill-opacity:1;stroke:none;stroke-width:0.264583px;stroke-linecap:butt;stroke-linejoin:miter;stroke-opacity:1"
       d="m -58.899092,26.618056 c -0.733971,-0.04587 -2.202191,-0.137637 -3.368997,0.05897 -1.166806,0.196603 -2.032007,0.681641 -3.008676,1.435436 -0.976669,0.753795 -2.064725,1.776305 -2.844745,3.179074 -0.780021,1.402769 -1.251948,3.185607 -1.330539,4.69322 -0.07859,1.507612 0.236028,2.739868 0.590032,3.664059 0.354005,0.924191 0.747278,1.540319 1.763249,1.743342 1.015971,0.203023 2.654609,-0.0067 4.286672,-0.32135 1.632063,-0.314628 3.257592,-0.734119 5.276394,-1.265039 2.018802,-0.530919 4.430878,-1.173266 5.643353,-1.513997 1.212475,-0.340732 1.225586,-0.380061 1.264934,-1.133789 0.03935,-0.753728 0.104894,-2.221948 -0.471797,-3.847452 -0.576691,-1.625504 -1.795838,-3.408343 -2.962493,-4.522705 -1.166655,-1.114363 -2.280929,-1.560073 -2.779077,-1.763275 -0.498147,-0.203202 -0.380164,-0.163874 -0.105057,-0.544044 0.275106,-0.380171 0.707707,-1.179826 1.199319,-1.874651 0.491613,-0.694825 1.042195,-1.284735 1.743587,-1.802576 0.701391,-0.517841 1.553484,-0.96355 2.451552,-1.140483 0.898069,-0.176933 1.841925,-0.08517 2.484255,0.144363 0.642329,0.229532 0.983166,0.596587 1.179769,0.773399 0.196602,0.176812 0.24904,0.163702 0.432477,0.0064 0.183436,-0.157289 0.498055,-0.458799 0.517755,-1.159978 0.0197,-0.701178 -0.255592,-1.802343 -0.452188,-2.333445 -0.196595,-0.531101 -0.314578,-0.491773 -1.087983,-0.37378 -0.773405,0.117993 -2.202298,0.314629 -3.591966,1.002865 -1.389668,0.688235 -2.739907,1.868055 -3.703459,2.936494 -0.963552,1.068439 -1.540353,2.025404 -1.87507,2.651641 -0.334717,0.626237 -0.427344,0.921656 -0.51719,1.095445 -0.08985,0.173788 -0.155248,0.213066 -0.154627,0.241466 6.22e-4,0.0284 0.10223,0.02038 0.128358,0.01832 0.02613,-0.0021 0.02613,-0.0021 -0.707842,-0.04794 z"
       id="path1121"
       inkscape:path-effect="#path-effect1123;#path-effect1205"
       inkscape:original-d="m -58.165122,26.663929 c -1.467956,-0.0915 -2.936176,-0.183263 -4.404661,-0.275291 -0.864936,0.485302 -1.730137,0.97034 -2.595603,1.455113 -1.087792,1.022775 -2.175848,2.045285 -3.264169,3.067531 -0.471663,1.783103 -0.943591,3.565941 -1.415783,5.348515 0.314883,1.232521 0.629502,2.464777 0.943856,3.696769 0.393538,0.616393 0.786811,1.232522 1.17982,1.848386 1.638903,-0.209481 3.277541,-0.419227 4.915915,-0.629237 1.625794,-0.419227 3.251324,-0.838718 4.876589,-1.258474 2.412341,-0.642082 4.824417,-1.284429 7.236228,-1.92704 0.01337,-0.03906 0.02648,-0.07839 0.03933,-0.117982 0.06581,-1.467956 0.131355,-2.936176 0.196636,-4.404661 -1.218882,-1.782574 -2.438029,-3.565413 -3.657441,-5.348517 -1.11401,-0.445445 -2.228284,-0.891155 -3.342823,-1.337129 0.118247,0.03959 0.236229,0.07892 0.353946,0.117982 0.432865,-0.799391 0.865465,-1.599047 1.297801,-2.398967 0.550847,-0.589645 1.10143,-1.179555 1.651748,-1.76973 0.852357,-0.445445 1.704449,-0.891155 2.556277,-1.337129 0.944121,0.09203 1.887977,0.183792 2.831568,0.275291 0.341101,0.36732 0.681938,0.734375 1.02251,1.101165 0.0527,-0.01285 0.105138,-0.02596 0.15731,-0.03933 0.314883,-0.301245 0.629502,-0.602755 0.943856,-0.904529 -0.275027,-1.1009 -0.550318,-2.202065 -0.825874,-3.303495 -0.117717,0.03959 -0.235699,0.07892 -0.353946,0.117982 -1.428628,0.196901 -2.857521,0.393538 -4.286679,0.58991 -1.349974,1.180084 -2.700212,2.359904 -4.050715,3.539459 -0.576536,0.95723 -1.153337,1.914195 -1.730403,2.870896 -0.09236,0.295685 -0.184989,0.591103 -0.277882,0.886262 -0.08693,0.05263 -0.15233,0.09191 -0.261591,0.157103 0.11034,-0.0084 0.211947,-0.01644 0.26418,-0.02085 z"
       sodipodi:nodetypes="ssssssssssssssssssssssssssssss"
       clip-path="url(#clipPath1201)"
       transform="matrix(0.13613391,0,0,0.13613391,-111.92037,-3.9241504)" /><path
       style="fill:none;fill-opacity:1;stroke:#ef6c58;stroke-width:0.281116;stroke-linecap:butt;stroke-linejoin:miter;stroke-dasharray:none;stroke-opacity:1"
       d="m -120.51319,0.91834407 c 0.091,-0.0669248 0.27305,-0.20076784 0.37478,-0.33192305 0.10173,-0.13115522 0.12316,-0.25962201 0.0946,-0.36670621 -0.0285,-0.10708421 -0.10703,-0.19272777 -0.18376,-0.23914731 -0.0767,-0.04641954 -0.1517,-0.0535596 -0.25611,-0.01251778 -0.10442,0.04104181 -0.23826,0.1302695 -0.35245,0.22804423 -0.11419,0.0977747 -0.20869,0.20406018 -0.27541,0.3250671 -0.0667,0.12100691 -0.10566,0.25677842 -0.0939,0.34442373 0.0118,0.0876453 0.0741,0.12735271 0.12763,0.15540192 0.0535,0.028049 0.0981,0.044429 0.17563,0.036519 0.0775,-0.00791 0.18775,-0.040067 0.24288,-0.056152 0.0551,-0.0160848 0.0551,-0.0160847 0.14609,-0.0830094 z"
       id="path1265"
       inkscape:path-effect="#path-effect1267"
       inkscape:original-d="m -120.60421,0.98526884 c 0.18207,-0.13380867 0.3641,-0.26765332 0.5461,-0.40153402 0.0215,-0.12845729 0.0428,-0.25694566 0.0643,-0.38547227 -0.0785,-0.0856263 -0.15699,-0.17128315 -0.23556,-0.25698146 -0.0749,-0.0071025 -0.14987,-0.01424058 -0.22486,-0.02141547 -0.13381,0.08926742 -0.26765,0.17849558 -0.40153,0.26768907 -0.0945,0.10633746 -0.18899,0.21263268 -0.28354,0.31889795 -0.0389,0.13572356 -0.0778,0.27150793 -0.11676,0.40705481 0.0624,0.0397222 0.12477,0.0794387 0.18717,0.11914935 0.0446,0.016391 0.0892,0.032789 0.13384,0.049147 0.11042,-0.032167 0.22065,-0.064321 0.33091,-0.0965351 z"
       sodipodi:nodetypes="ccccccccccc" /><g
       aria-label="Cakes Shop"
       id="text393"
       style="font-size:18.5208px;fill:#391400;stroke-width:0.264583"><path
         d="m -108.4731,9.3523706 q 1.36729,0 1.89987,-1.3724092 l 1.31607,0.4967305 q -0.42503,1.0446701 -1.2495,1.5567641 -0.81935,0.506972 -1.96644,0.506972 -1.74112,0 -2.69361,-0.9832201 -0.94738,-0.9883399 -0.94738,-2.7601824 0,-1.7769634 0.91665,-2.7294569 0.91665,-0.9524934 2.65777,-0.9524934 1.26999,0 2.06885,0.5120933 0.79887,0.5069723 1.12149,1.495312 l -1.33144,0.3635865 q -0.16899,-0.5428189 -0.66573,-0.8603168 -0.4916,-0.3226186 -1.16244,-0.3226186 -1.0242,0 -1.55676,0.6349955 -0.52747,0.6349957 -0.52747,1.8588984 0,1.2443871 0.54282,1.8998661 0.54795,0.655479 1.57725,0.655479 z"
         style="-inkscape-font-specification:'Liberation Sans Bold';stroke-width:0.149824"
         id="path1251" /><path
         d="m -102.95786,10.540428 q -0.80398,0 -1.25462,-0.43528 -0.45065,-0.4404 -0.45065,-1.2341455 0,-0.8603155 0.55818,-1.3109579 0.56331,-0.4506419 1.62846,-0.4608839 l 1.19318,-0.020484 V 6.7970276 q 0,-0.5428189 -0.18948,-0.8039869 -0.18947,-0.2662881 -0.61963,-0.2662881 -0.39943,0 -0.58891,0.1843536 -0.18435,0.1792323 -0.23044,0.5991489 l -1.50043,-0.071693 q 0.13826,-0.8091074 0.73741,-1.2239029 0.60427,-0.4199165 1.64382,-0.4199165 1.04979,0 1.61822,0.5172144 0.568421,0.517214 0.568421,1.4697077 v 2.0176471 q 0,0.4660049 0.102418,0.6452376 0.10754,0.174111 0.353345,0.174111 0.16387,0 0.317497,-0.030725 v 0.7783815 q -0.128024,0.03073 -0.230442,0.05633 -0.102418,0.0256 -0.204837,0.04097 -0.102418,0.01537 -0.2202,0.02561 -0.11266,0.01025 -0.266289,0.01025 -0.542823,0 -0.803983,-0.266288 -0.25605,-0.2662891 -0.30726,-0.7835031 h -0.0307 q -0.60427,1.0907581 -1.82306,1.0907581 z m 1.67455,-2.668006 -0.73742,0.010247 q -0.50185,0.020486 -0.71181,0.1126604 -0.20995,0.087056 -0.32261,0.2714097 -0.10754,0.1843531 -0.10754,0.4916094 0,0.3943115 0.17923,0.5889075 0.18435,0.1894741 0.48649,0.1894741 0.33798,0 0.61451,-0.1843538 0.28165,-0.1843539 0.4404,-0.5069719 0.15875,-0.3277399 0.15875,-0.6913265 z"
         style="-inkscape-font-specification:'Liberation Sans Bold';stroke-width:0.149824"
         id="path1253" /><path
         d="m -94.866783,10.438009 -1.479949,-2.5092568 -0.619633,0.4301574 v 2.0790994 h -1.438983 V 2.8385449 h 1.438983 V 7.191337 l 1.976679,-2.2941772 h 1.546522 l -1.945954,2.1610333 2.094461,3.3798159 z"
         style="-inkscape-font-specification:'Liberation Sans Bold';stroke-width:0.149824"
         id="path1255" /><path
         d="m -90.304033,10.540428 q -1.249508,0 -1.920351,-0.737415 -0.670841,-0.7425348 -0.670841,-2.1610337 0,-1.3724096 0.681084,-2.1098241 0.681085,-0.7374141 1.930591,-0.7374141 1.193178,0 1.823053,0.7937444 0.629875,0.7886235 0.629875,2.3146614 v 0.040972 h -3.553928 q 0,0.809108 0.297014,1.2239029 0.302135,0.4096747 0.855195,0.4096747 0.76302,0 0.962737,-0.6606001 l 1.357046,0.1177815 q -0.588907,1.5055531 -2.391475,1.5055531 z m 0,-4.8392819 q -0.506973,0 -0.783503,0.3533445 -0.271409,0.3533445 -0.286772,0.9883398 h 2.150792 q -0.04097,-0.6708422 -0.322619,-1.0037026 -0.281652,-0.3379817 -0.757898,-0.3379817 z"
         style="-inkscape-font-specification:'Liberation Sans Bold';stroke-width:0.149824"
         id="path1257" /><path
         d="m -82.069572,8.8197942 q 0,0.8039861 -0.6606,1.2648698 -0.655479,0.455764 -1.817932,0.455764 -1.141968,0 -1.751359,-0.358466 -0.60427,-0.3635858 -0.803986,-1.1266049 l 1.26487,-0.1894749 q 0.107539,0.3943123 0.368707,0.5581818 0.266288,0.1638703 0.921768,0.1638703 0.60427,0 0.880801,-0.1536289 0.27653,-0.1536274 0.27653,-0.4813665 0,-0.2662894 -0.225322,-0.4199168 -0.220199,-0.1587501 -0.752776,-0.2662886 -1.218782,-0.2406841 -1.64382,-0.4455214 -0.425038,-0.2099584 -0.650358,-0.5376981 -0.2202,-0.3328599 -0.2202,-0.8142278 0,-0.7937448 0.609391,-1.2341451 0.614513,-0.445521 1.735996,-0.445521 0.98834,0 1.587489,0.3840699 0.60427,0.38407 0.752777,1.1112424 l -1.275112,0.1331441 q -0.06145,-0.3379811 -0.302135,-0.5018513 -0.240684,-0.1689909 -0.763019,-0.1689909 -0.512093,0 -0.76814,0.1331447 -0.256046,0.1280233 -0.256046,0.4352789 0,0.240684 0.194595,0.3840699 0.199716,0.1382652 0.665721,0.2304422 0.650359,0.1331445 1.15221,0.2765304 0.506972,0.1382645 0.809108,0.3328607 0.307255,0.1945951 0.486488,0.5018515 0.184354,0.3021346 0.184354,0.7783816 z"
         style="-inkscape-font-specification:'Liberation Sans Bold';stroke-width:0.149824"
         id="path1259" /><path
         d="m -72.140086,8.3589096 q 0,1.0600333 -0.788623,1.6233362 -0.783503,0.5581822 -2.304419,0.5581822 -1.387773,0 -2.176396,-0.49161 -0.788624,-0.4916101 -1.013945,-1.4901914 l 1.459465,-0.240684 q 0.148508,0.5735442 0.578665,0.8347117 0.430159,0.2560465 1.193178,0.2560465 1.582368,0 1.582368,-0.9627346 0,-0.3072564 -0.184354,-0.5069726 -0.179232,-0.1997163 -0.512093,-0.3328602 -0.32774,-0.1331446 -1.26487,-0.3226194 -0.809108,-0.189474 -1.126604,-0.3021345 -0.317499,-0.1177818 -0.573545,-0.2714097 -0.256048,-0.1587486 -0.43528,-0.3789491 -0.179232,-0.2201999 -0.281652,-0.517214 -0.0973,-0.2970142 -0.0973,-0.6810841 0,-0.9780981 0.732294,-1.4953123 0.737414,-0.5223351 2.14055,-0.5223351 1.341684,0 2.012526,0.4199164 0.675963,0.4199165 0.870558,1.3877727 L -73.79415,5.1224805 Q -73.906807,4.6564759 -74.255031,4.420913 -74.598132,4.18535 -75.24337,4.18535 q -1.37241,0 -1.37241,0.8603168 0,0.2816514 0.143386,0.4608837 0.148507,0.1792329 0.43528,0.3072562 0.286772,0.1229021 1.16245,0.312377 1.03955,0.2201998 1.485072,0.4096748 0.450641,0.1843527 0.711809,0.435279 0.261168,0.2458043 0.399432,0.5940281 0.138265,0.3431023 0.138265,0.793744 z"
         style="-inkscape-font-specification:'Liberation Sans Bold';stroke-width:0.149824"
         id="path1261" /><path
         d="m -69.579616,6.003281 q 0.291893,-0.6349953 0.732293,-0.9217674 0.4404,-0.2867725 1.049791,-0.2867725 0.880801,0 1.351927,0.5428186 0.471125,0.5428193 0.471125,1.5874896 v 3.5129597 h -1.433861 V 7.3347236 q 0,-1.4594659 -0.98834,-1.4594659 -0.522335,0 -0.844954,0.4506423 -0.317497,0.4455207 -0.317497,1.1470888 v 2.9650202 h -1.438982 V 2.8385449 h 1.438982 v 2.0739775 q 0,0.5581818 -0.04097,1.0907586 z"
         style="-inkscape-font-specification:'Liberation Sans Bold';stroke-width:0.149824"
         id="path1263" /><path
         d="m -59.327511,7.6624636 q 0,1.3468055 -0.747657,2.1149449 -0.747656,0.7630195 -2.068856,0.7630195 -1.295595,0 -2.03301,-0.7681406 -0.737414,-0.7681394 -0.737414,-2.1098238 0,-1.3365636 0.737414,-2.0995828 0.737415,-0.7681397 2.063736,-0.7681397 1.357047,0 2.068857,0.7425349 0.71693,0.7374144 0.71693,2.1251876 z m -1.505554,0 q 0,-0.9883406 -0.322619,-1.4338614 -0.322619,-0.445521 -0.93713,-0.445521 -1.310959,0 -1.310959,1.8793824 0,0.9268887 0.317498,1.413377 0.322618,0.4813673 0.926889,0.4813673 1.326321,0 1.326321,-1.8947443 z"
         style="-inkscape-font-specification:'Liberation Sans Bold';stroke-width:0.149824"
         id="path1266" /><path
         d="m -52.94171,7.6419793 q 0,1.3877725 -0.558181,2.1456713 -0.553061,0.7527774 -1.567005,0.7527774 -0.583787,0 -1.019066,-0.250927 -0.430158,-0.256045 -0.660601,-0.7322931 h -0.03072 q 0.03072,0.1536282 0.03072,0.9320101 v 2.125187 h -1.438981 V 6.1722719 q 0,-0.7835027 -0.04097,-1.2751121 h 1.398014 q 0.0256,0.092177 0.04097,0.3635861 0.02049,0.2714093 0.02049,0.537698 h 0.02049 q 0.486488,-1.0190656 1.771843,-1.0190656 0.967856,0 1.500432,0.7476562 0.532578,0.7425352 0.532577,2.1149448 z m -1.500433,0 q 0,-1.8640194 -1.141967,-1.8640194 -0.573545,0 -0.880801,0.5018518 -0.302135,0.5018511 -0.302135,1.4031354 0,0.896163 0.302135,1.3877725 0.307256,0.4864883 0.870558,0.4864883 1.15221,0 1.15221,-1.9152286 z"
         style="-inkscape-font-specification:'Liberation Sans Bold';stroke-width:0.149824"
         id="path1268" /></g></g></svg>
